<svg width="100" height="40" viewBox="0 0 100 40" fill="none" xmlns="http://www.w3.org/2000/svg">
<path d="M30.1595 17.1672L30.2064 17.3079L36.3978 14.7751C37.8049 14.2122 38.4616 12.5705 37.8987 11.1634L37.8049 11.0227L31.6136 13.5555C30.2533 14.1184 29.5498 15.76 30.1595 17.1672Z" fill="white"/>
<path d="M28.2833 13.4617L28.424 13.6024L33.1613 8.86507C34.2401 7.78627 34.2401 6.05081 33.1613 4.97201L33.0206 4.8313L28.2833 9.52173C27.2045 10.6005 27.2045 12.3829 28.2833 13.4617Z" fill="white"/>
<path d="M60.4597 23.2178H56.6135V21.3885H60.3659V19.7938H56.6135V18.1052H60.4597V16.5105H54.8781V24.8126H60.4597V23.2178Z" fill="white"/>
<path d="M60.319 12.1016H56.8012V5.39429H54.925V13.7433H60.319V12.1016Z" fill="white"/>
<path d="M25.1877 10.7881L25.3284 10.835L27.9081 4.64364C28.471 3.23652 27.8143 1.64177 26.4072 1.03201L26.2665 0.985107L23.6867 7.17648C23.1239 8.58361 23.7805 10.1784 25.1877 10.7881Z" fill="white"/>
<path d="M9.80303 22.7489L9.75612 22.5613L3.56475 25.0941C2.15762 25.657 1.50096 27.2986 2.06381 28.7057L2.11072 28.7996L8.30209 26.3136C9.70922 25.7977 10.3659 24.156 9.80303 22.7489Z" fill="white"/>
<path d="M11.6323 26.4076L11.4916 26.2668L6.75423 31.0511C5.67543 32.1299 5.67543 33.8653 6.75423 34.9441L6.89494 35.0849L11.6323 30.3475C12.7111 29.2687 12.7111 27.4864 11.6323 26.4076Z" fill="white"/>
<path d="M63.3208 5.39429H61.4446V13.7433H63.3208L63.3208 5.39429Z" fill="white"/>
<path d="M9.5685 11.6327C10.6473 12.7115 12.3828 12.7115 13.4616 11.6327L13.6023 11.492L8.86493 6.75466C7.78613 5.67586 6.05067 5.67586 4.97187 6.75466L4.83116 6.89537L9.5685 11.6327Z" fill="white"/>
<path d="M9.47467 18.6683V18.4807H2.76736C1.26642 18.4807 7.44813e-08 19.7002 8.0521e-09 21.2481L0 21.4357H6.70732C8.25516 21.4357 9.47467 20.1693 9.47467 18.6683Z" fill="white"/>
<path d="M8.25513 16.4169C8.63036 16.4169 8.95869 16.3231 9.28702 16.2293C9.94368 15.9479 10.5065 15.4319 10.788 14.7284L10.8349 14.5876L4.64349 12.0079C3.23636 11.4451 1.64162 12.1017 1.03186 13.5088V13.6027L7.22323 16.1824C7.55156 16.3231 7.9268 16.4169 8.25513 16.4169Z" fill="white"/>
<path d="M78.1426 12.3361H81.8011L82.3171 13.7433H84.334L81.0976 5.44119V5.39429H78.7993L75.5629 13.7433H77.6266L78.1426 12.3361ZM79.9719 7.12975L81.2852 10.7414H78.6585L79.9719 7.12975Z" fill="white"/>
<path d="M97.6078 12.1485H93.5272V10.3192H97.514V8.72449H93.5272V7.03594H97.6078V5.39429L91.651 5.39429V13.7433H97.6078V12.1485Z" fill="white"/>
<path d="M86.0694 13.7433H87.9455V7.03594H90.3846V5.39429H83.6772V7.03594H86.0694V13.7433Z" fill="white"/>
<path d="M88.5553 16.5105L85.5535 24.8126H87.4296L87.8987 23.4054H91.2758L91.7448 24.8126H93.621L90.6191 16.5574V16.5105H88.5553ZM90.7598 21.8107H88.3208L89.5403 18.1991L90.7598 21.8107Z" fill="white"/>
<path d="M62.1013 16.5105V21.4824C62.1013 23.6869 63.3677 24.9533 65.6191 24.9533C67.8236 24.9533 69.09 23.6869 69.09 21.4824V16.5105H67.3545V21.4355C67.3545 22.6081 66.7448 23.3116 65.6191 23.3116C64.4934 23.3116 63.8836 22.655 63.8836 21.4355V16.5105H62.1013Z" fill="white"/>
<path d="M94.9343 16.5105V24.8126H99.9062V23.1709H96.6229V16.5105H94.9343Z" fill="white"/>
<path d="M74.484 24.8126V18.1521H76.7354V16.5105H70.4972V18.1521H72.7486V24.8126H74.484Z" fill="white"/>
<path d="M84.4746 19.1844C84.4746 19.0905 84.4746 18.9967 84.4746 18.9029C84.4277 17.4958 83.2551 16.417 81.848 16.5108H78.1894V24.8129H79.9249V21.8579H81.0506L82.5515 24.8129H84.5215L82.7861 21.6703C83.6303 21.4358 84.4746 20.6853 84.4746 19.1844ZM81.5665 20.2632H79.878V18.1056H81.5665C82.1763 18.1056 82.6453 18.5746 82.6453 19.1844C82.6453 19.7941 82.1763 20.2632 81.5665 20.2632Z" fill="white"/>
<path d="M67.2139 8.02093L69.4653 13.6964V13.7433H70.3096L72.561 8.02093L72.561 13.7433H74.4372V5.39429H71.8575L69.8875 10.5069L67.9175 5.44119H65.3378V13.7433H67.2139V8.02093Z" fill="white"/>
<path d="M14.7279 29.0808L14.5872 29.0339L12.0075 35.2253C11.4446 36.6324 12.1013 38.2272 13.5084 38.8369L13.6491 38.8838L16.2289 32.6925C16.7917 31.2853 16.1351 29.6906 14.7279 29.0808Z" fill="white"/>
<path d="M61.3509 35.2724C61.3509 35.2255 61.3509 35.1786 61.3509 35.1317C61.304 34.3812 60.6473 33.8184 59.8968 33.8653H58.0676V38.1805H58.9587V36.6326H59.4747L60.4128 38.1805H61.4916L60.4128 36.5388C60.9756 36.3981 61.3509 35.8822 61.3509 35.2724ZM59.803 35.8353H58.9587V34.7096H59.803C59.8499 34.7096 59.8499 34.7096 59.8968 34.7096C60.1783 34.7565 60.4128 34.991 60.4128 35.3193C60.3659 35.6007 60.0844 35.8353 59.803 35.8353Z" fill="white"/>
<path d="M77.1576 33.8655V38.1807H78.0488V33.8655H77.1576Z" fill="white"/>
<path d="M72.045 38.1807H72.9362V36.3983H75V35.6009H72.9362V34.7098H75.0469V33.8655H72.045V38.1807Z" fill="white"/>
<path d="M11.1632 1.97031L11.0225 2.01721L13.5554 8.20858C13.8368 8.86524 14.3527 9.42809 15.0563 9.70952C15.3846 9.85023 15.7599 9.94404 16.1351 9.94404C16.5103 9.94404 16.8387 9.85023 17.167 9.70952L17.3546 9.66261L14.8218 3.47124C14.212 2.06412 12.5704 1.40745 11.1632 1.97031Z" fill="white"/>
<path d="M63.2271 34.7098H64.4466V38.1807H65.3846V34.7098H66.6042V33.8655H63.2271V34.7098Z" fill="white"/>
<path d="M100 28.8933H46.7167V29.9252H100V28.8933Z" fill="white"/>
<path d="M80.4409 38.1807H83.4428V37.3364H81.379V36.3983H83.3959V35.6009H81.379V34.7098H83.4428V33.8655H80.4409V38.1807Z" fill="white"/>
<path d="M52.8143 38.1807H55.8162V37.3364H53.7055V36.3983H55.7693V35.6009H53.7055V34.7098H55.8162V33.8655H52.8143V38.1807Z" fill="white"/>
<path d="M87.2889 33.8655H85.6942V38.1807H87.2889C88.5085 38.1807 89.4465 37.1957 89.4465 36.0231C89.4465 34.8505 88.4615 33.8655 87.2889 33.8655ZM87.2889 37.3833H86.6323V34.7098H87.2889C87.3358 34.7098 87.3828 34.7098 87.4766 34.7098C88.1332 34.7567 88.6492 35.3664 88.6023 36.0231C88.6023 36.07 88.6023 36.1169 88.6023 36.1638C88.5554 36.8674 87.9456 37.3833 87.2889 37.3833Z" fill="white"/>
<path d="M69.606 33.8655H68.7148V38.1807H69.606V33.8655Z" fill="white"/>
<path d="M29.1276 25.1412L29.0338 25.282L35.272 27.9086C35.6004 28.0493 35.9756 28.0962 36.3039 28.0962C37.4296 28.0962 38.4146 27.4396 38.8368 26.4077L38.8837 26.2669L32.6923 23.6872C31.3321 23.0774 29.7373 23.7341 29.1276 25.1412Z" fill="white"/>
<path d="M30.3471 28.2366C29.2683 27.1578 27.5329 27.1578 26.4541 28.2366L26.3134 28.3773L31.0507 33.1146C32.1295 34.1934 33.865 34.1934 34.9438 33.1146L35.0845 32.9739L30.3471 28.2366Z" fill="white"/>
<path d="M26.3602 31.6138C25.7973 30.2067 24.2026 29.55 22.7955 30.1129L22.6079 30.1598L25.0938 36.3512C25.3752 37.0078 25.8912 37.5707 26.5947 37.8521C26.923 37.9928 27.2983 38.0866 27.6735 38.0866C28.0488 38.0866 28.3771 37.9928 28.7054 37.8521L28.893 37.8052L26.3602 31.6138Z" fill="white"/>
<path d="M18.6678 0.000244141L18.4802 0.000244141V6.70756C18.4802 8.2085 19.6997 9.42801 21.2476 9.42801H21.4352L21.4352 2.72069C21.4352 1.21976 20.1688 0.000244136 18.6678 0.000244141Z" fill="white"/>
<path d="M18.6678 30.3943H18.4802V37.1016C18.4802 38.6494 19.6997 39.869 21.2476 39.869H21.4352V33.1616C21.4352 31.6607 20.1688 30.3943 18.6678 30.3943Z" fill="white"/>
<path d="M30.4409 21.2481V21.3888H37.1482C38.696 21.3888 39.9155 20.1224 39.9155 18.6214V18.4807H33.2082C31.6604 18.4807 30.4409 19.7471 30.4409 21.2481Z" fill="white"/>
<path d="M49.8593 13.9305C51.3602 13.9774 52.7204 13.18 53.424 11.8667L53.4709 11.8198L51.8761 11.0693V11.1162C51.5009 11.8667 50.7504 12.2888 49.9062 12.2888C49.8593 12.2888 49.8124 12.2888 49.8124 12.2888C48.4052 12.195 47.3264 11.0224 47.4202 9.61528C47.4202 9.56838 47.4202 9.56838 47.4202 9.52147C47.4202 8.11435 48.5459 6.98864 49.9062 6.94174C50.7504 6.94174 51.5009 7.41078 51.8761 8.11435V8.16125L53.4709 7.36388V7.31697C52.7673 6.00365 51.3602 5.20628 49.9062 5.25318C49.8124 5.25318 49.7186 5.25318 49.6247 5.25318C47.2795 5.30009 45.4503 7.22316 45.4972 9.56838C45.4972 9.66219 45.4972 9.756 45.4972 9.84981C45.591 12.195 47.561 14.0243 49.8593 13.9305Z" fill="white"/>
<path d="M47.7017 19.4186L51.3133 24.8126H52.955V16.5105H51.2195V21.7169L47.7486 16.5105H46.0132L45.9663 24.8126H47.7017V19.4186Z" fill="white"/>
<path d="M48.9681 34.6629C49.3434 34.6629 49.7186 34.8505 49.9062 35.1788L50 35.3195L50.7974 34.8974L50.7036 34.7567C50.3284 34.1469 49.6717 33.8186 48.9681 33.8186C47.7486 33.8186 46.7167 34.8036 46.7167 36.07C46.7167 37.3364 47.7017 38.3214 48.9681 38.3214C49.6717 38.3214 50.3284 37.9931 50.7036 37.3833L50.7974 37.2895L50 36.8674L49.9062 37.0081C49.7186 37.3364 49.3434 37.524 48.9681 37.524C48.3584 37.4302 47.8424 36.9612 47.7955 36.3514C47.6548 35.5072 48.2177 34.8036 48.9681 34.6629Z" fill="white"/>
</svg>
