<svg width="150" height="25" viewBox="0 0 150 25" fill="none" xmlns="http://www.w3.org/2000/svg">
<path d="M84.8037 14.1173C81.7065 14.1173 79.5819 11.7424 79.5819 8.49675C79.5819 5.22472 81.7577 2.77069 84.8037 2.77069C87.8498 2.77069 90.0256 5.19833 90.0256 8.49675C90.0256 11.7424 87.8498 14.1173 84.8037 14.1173ZM84.8037 1.71661e-05C80.0171 1.71661e-05 76.7406 3.74702 76.7406 8.49675C76.7406 13.2201 80.0171 16.8879 84.8037 16.8879C89.5392 16.8879 92.8157 13.2201 92.8157 8.49675C92.8157 3.74702 89.5392 1.71661e-05 84.8037 1.71661e-05ZM97.5768 0.343053H94.7611V16.5449H105.794V13.7742H97.5512V0.343053H97.5768ZM64.3003 16.5449H75.4096V13.7742H67.116V9.65779H74.4881V6.86073H67.116V3.11373H75.4096V0.343053H64.3003V16.5449ZM146.8 0.36944V6.64963C146.8 8.70785 145.751 9.94805 144.189 9.94805C142.705 9.94805 141.962 9.02449 141.962 7.25654V0.36944H138.788L138.84 7.86345C138.84 10.9244 140.427 12.8507 143.166 12.8507C144.753 12.8507 145.981 12.2174 146.826 11.2146V13.6423C146.826 15.8324 145.572 17.2046 143.729 17.2046C142.321 17.2046 141.271 16.413 141.092 14.9089L138.072 15.3311C138.225 18.2601 140.58 20.0808 143.729 20.0808C147.491 20.0808 150 17.3101 150 13.5103V0.36944H146.8ZM132.133 19.5003C132.133 20.6085 131.263 21.4793 130.213 21.4793C128.677 21.4793 127.986 20.3711 127.986 19.2892C127.986 18.3656 128.473 17.4684 129.343 16.7824C129.906 16.3338 130.776 15.8588 132.159 15.5686V19.5003H132.133ZM131.135 8.52313C130.546 9.13004 129.804 9.42031 128.908 9.42031C128.012 9.42031 127.27 9.13004 126.681 8.52313C126.092 7.88984 125.811 7.1246 125.811 6.17466C125.811 5.22471 126.092 4.43309 126.681 3.82618C127.27 3.19289 128.012 2.90263 128.908 2.90263C129.804 2.90263 130.546 3.19289 131.135 3.82618C131.749 4.43309 132.031 5.22471 132.031 6.17466C132.031 7.09822 131.749 7.88984 131.135 8.52313ZM134.923 9.26198V0.36944H132.031V1.74158C131.16 0.606926 129.932 0.0527919 128.37 0.0527919C126.86 0.0527919 125.58 0.659701 124.505 1.84713C123.456 3.03456 122.918 4.45948 122.918 6.17466C122.918 7.88984 123.456 9.34114 124.505 10.5286C125.58 11.716 126.86 12.2965 128.37 12.2965C129.932 12.2965 131.135 11.7688 132.133 10.5022V12.666C130.316 12.9562 128.78 13.5895 127.602 14.5395C126.067 15.7797 125.171 17.5212 125.171 19.342C125.171 22.2446 127.321 24.4083 130.188 24.4083C132.799 24.4083 134.923 22.2182 134.923 19.5267V15.3311H136.459V12.4285H134.923V9.26198ZM113.805 14.1173C110.708 14.1173 108.584 11.7424 108.584 8.49675C108.584 5.22472 110.759 2.77069 113.805 2.77069C116.852 2.77069 119.027 5.19833 119.027 8.49675C119.027 11.7424 116.852 14.1173 113.805 14.1173ZM113.831 1.71661e-05C109.044 1.71661e-05 105.768 3.74702 105.768 8.49675C105.768 13.2201 109.044 16.8879 113.831 16.8879C118.567 16.8879 121.843 13.2201 121.843 8.49675C121.843 3.74702 118.567 1.71661e-05 113.831 1.71661e-05ZM0 16.5449H2.8157V10.1328H10.1365V7.36209H2.8157V3.14011H11.058V0.343053H0V16.5449ZM53.2935 10.7661C53.0887 11.0563 52.8328 11.1883 52.4488 11.1883C52.0648 11.1883 51.8089 11.0563 51.6041 10.7661C51.3481 10.3702 51.1945 9.76334 51.1945 9.05088C51.1945 7.38848 51.7065 6.06911 52.4232 5.06639C53.1655 6.06911 53.6519 7.38848 53.6519 9.05088C53.6775 9.76334 53.5495 10.3966 53.2935 10.7661ZM56.2628 0.0264045C54.7782 0.0264045 53.5239 0.448602 52.4488 1.16106C51.3737 0.448602 50.0939 0.0264045 48.6348 0.0264045C45.4863 0.0264045 42.9522 2.66514 42.9522 5.8844V16.5449H45.7679V5.8844C45.7679 4.24838 47.0734 2.90263 48.6604 2.90263C49.1724 2.90263 49.7611 3.03456 50.3242 3.29844C49.0956 5.06639 48.4556 7.23015 48.4556 9.05088C48.4556 10.3702 48.7628 11.5313 49.3515 12.4285C50.0683 13.5103 51.1945 14.0909 52.5 14.0909C53.8055 14.0909 54.9061 13.484 55.6485 12.4285C56.2372 11.5577 56.5444 10.3966 56.5444 9.05088C56.5444 7.23015 55.9044 5.04 54.6758 3.29844C55.2389 3.03456 55.802 2.90263 56.3396 2.90263C57.9266 2.90263 59.2321 4.24838 59.2321 5.8844V16.5449H62.0478V5.8844C61.9454 2.63875 59.3857 0.0264045 56.2628 0.0264045ZM31.7406 9.68418L34.0444 3.77341L36.3481 9.68418H31.7406ZM32.3805 0.343053L26.0068 16.5449H29.0529L30.6399 12.4812H37.4232L39.0102 16.5449H42.0819L35.6826 0.343053H32.3805ZM19.9147 7.5468H15.8447V3.11373H19.9147C21.3993 3.11373 22.2952 3.95812 22.2952 5.30388C22.2952 6.72879 21.3737 7.5468 19.9147 7.5468ZM25.0853 5.33026C25.0853 2.42765 23.1399 0.36944 20.0683 0.36944H13.029V16.5713H15.8447V10.3175H19.3515L22.1672 16.5713H25.2133L22.1416 9.94805C23.9846 9.23559 25.0853 7.52042 25.0853 5.33026Z" fill="white"/>
</svg>
