<svg width="82" height="75" viewBox="0 0 82 75" fill="none" xmlns="http://www.w3.org/2000/svg">
<path d="M64.676 9.69809L5.41409 10.0126C4.70019 10.0126 3.99479 10.1656 3.33189 10.446C2.66899 10.7265 2.07408 11.1345 1.57265 11.6445C1.07122 12.1544 0.671779 12.7579 0.399818 13.4208C0.127858 14.0838 -0.00812361 14.7977 0.000375159 15.5117L0.221338 58.5867C0.221338 59.3006 0.374316 60.0061 0.646277 60.669C0.926736 61.332 1.32619 61.9269 1.83611 62.4284C2.34604 62.9299 2.94945 63.3293 3.61235 63.6013C4.27525 63.8733 4.98066 64.0093 5.70305 64.0008L27.2814 63.8903C29.4741 66.9161 33.0011 71.6928 34.9473 74.3786C35.0918 74.5826 35.2873 74.7441 35.5167 74.8545C35.7462 74.965 35.9927 75.0075 36.2391 74.999C36.4856 74.982 36.732 74.9055 36.9445 74.778C37.157 74.6505 37.3354 74.4636 37.4629 74.2511L43.4461 63.8053L64.9735 63.6863C65.6874 63.6863 66.4012 63.5418 67.0556 63.2614C67.7185 62.9809 68.3135 62.5814 68.8149 62.0714C69.3163 61.5615 69.7158 60.958 69.9877 60.2951C70.2597 59.6321 70.3957 58.9181 70.3872 58.2042L70.1917 15.1122C70.1917 14.3898 70.0472 13.6758 69.7667 13.0128C69.4863 12.3499 69.0784 11.7464 68.5599 11.245C68.05 10.7435 67.4381 10.344 66.7667 10.0806C66.0953 9.81707 65.3814 9.68108 64.659 9.68958L64.676 9.69809Z" fill="#3300CC"/>
<path d="M29.9074 46.2541C30.0348 47.3505 29.9243 48.4639 29.6014 49.5179C29.2784 50.5718 28.7345 51.5492 28.0121 52.3907C29.5589 52.2462 31.0207 51.6087 32.185 50.5803C33.3494 49.5519 34.1567 48.175 34.4797 46.6536C34.4797 46.6536 48.5027 48.328 50.1684 38.8511C51.9447 28.8643 41.6866 25.9915 37.3183 26C29.6779 26 23.3973 30.1647 23.0574 37.3297C22.7174 44.4947 29.8989 46.2626 29.8989 46.2626L29.9074 46.2541Z" fill="white"/>
<path d="M81.8016 12.6643C81.8186 15.1886 81.0877 17.6619 79.6939 19.7613C78.3086 21.8691 76.3284 23.518 73.9997 24.4955C71.6796 25.4729 69.1129 25.7449 66.6398 25.2604C64.1666 24.7844 61.8805 23.5775 60.0872 21.8011C58.294 20.0248 57.0702 17.7554 56.5602 15.2906C56.0588 12.8173 56.2968 10.2504 57.2486 7.92161C58.2005 5.58427 59.8323 3.58691 61.923 2.17601C64.0137 0.765106 66.4783 0.00866086 69.0024 0.000161454C72.3765 -0.0168374 75.623 1.30907 78.0196 3.68891C80.4163 6.06024 81.7761 9.29001 81.8016 12.6643Z" fill="#FE5F55"/>
</svg>
