<?xml version="1.0" encoding="iso-8859-1"?>
<!-- Uploaded to: SVG Repo, www.svgrepo.com, Generator: SVG Repo Mixer Tools -->
<svg height="800px" width="800px" version="1.1" id="Layer_1" xmlns="http://www.w3.org/2000/svg" xmlns:xlink="http://www.w3.org/1999/xlink" 
	 viewBox="0 0 511.982 511.982" xml:space="preserve">
<path style="fill:#E6E9ED;" d="M424.185,34.451C401.967,12.233,372.545,0,341.314,0H170.663c-31.226,0-60.654,12.233-82.872,34.451
	s-34.46,51.655-34.46,82.872v277.318c0,31.218,12.242,60.655,34.46,82.872c22.218,22.219,51.646,34.469,82.872,34.469h170.651
	c31.231,0,60.653-12.25,82.871-34.469c22.233-22.217,34.468-51.654,34.468-82.872V117.323
	C458.653,86.106,446.419,56.669,424.185,34.451z"/>
<path style="fill:#4FC2E9;" d="M170.663,501.31c-28.375,0-55.124-11.125-75.333-31.327c-20.203-20.218-31.327-46.968-31.327-75.342
	V117.323c0-28.373,11.125-55.123,31.327-75.325c20.21-20.21,46.959-31.334,75.333-31.334h170.651
	c28.372,0,55.138,11.124,75.34,31.334c20.202,20.202,31.327,46.952,31.327,75.325v277.318c0,28.374-11.125,55.124-31.327,75.342
	c-20.202,20.202-46.968,31.327-75.34,31.327H170.663z"/>
<path style="fill:#F5F7FA;" d="M64.002,335.082v59.56c0,28.374,11.125,55.124,31.327,75.342
	c20.21,20.202,46.959,31.327,75.333,31.327h170.651c28.372,0,55.138-11.125,75.34-31.327c20.202-20.218,31.327-46.968,31.327-75.342
	v-59.56H64.002z"/>
<path style="fill:#FFCE54;" d="M67.096,85.325c-2.008,6.757-3.094,13.921-3.094,21.335c0,41.233,33.429,74.662,74.662,74.662
	s74.661-33.429,74.661-74.662c0-7.414-1.086-14.578-3.094-21.335C210.231,85.325,67.096,85.325,67.096,85.325z"/>
<path style="fill:#F6BB42;" d="M198.998,85.325c2.367,6.679,3.664,13.858,3.664,21.335c0,35.288-28.71,63.998-63.998,63.998
	s-63.998-28.71-63.998-63.998c0-7.477,1.289-14.656,3.664-21.335H63.885v53.334h-4.32c12.688,31.241,43.358,53.326,79.099,53.326
	c47.053,0,85.333-38.272,85.333-85.325c0-7.367-0.938-14.516-2.703-21.335C221.294,85.325,198.998,85.325,198.998,85.325z"/>
<g>
	<path style="fill:#E6E9ED;" d="M87.791,34.451C73.377,48.865,63.166,66.317,57.768,85.325h396.447
		c-5.406-19.008-15.609-36.46-30.03-50.874C401.967,12.233,372.545,0,341.314,0H170.663C139.437,0,110.009,12.233,87.791,34.451z"/>
	<path style="fill:#E6E9ED;" d="M82.283,348.003c-4.633,0-8.929-0.749-12.39-2.483l-10.664-5.329l9.539-19.077l10.593,5.28
		c2.383,0.875,11.609,0.188,20.281-4.155l4.508-2.25c13.593-6.812,34.1-6.812,47.701,0l4.5,2.25c7.492,3.749,21.132,3.749,28.624,0
		l4.5-2.25c13.601-6.812,34.108-6.812,47.701,0l4.507,2.25c7.492,3.749,21.133,3.749,28.617,0l4.499-2.25
		c13.594-6.812,34.108-6.812,47.702,0l4.516,2.25c7.484,3.749,21.124,3.749,28.607,0l4.499-2.25c13.609-6.812,34.109-6.812,47.719,0
		l4.499,2.25c8.672,4.343,17.89,5.03,20.28,4.155l10.594-5.28l9.531,19.077l-10.656,5.328c-10.141,5.062-27.437,1.719-39.295-4.203
		l-4.5-2.25c-7.484-3.734-21.125-3.734-28.625,0l-4.5,2.25c-13.592,6.796-34.106,6.796-47.7,0l-4.5-2.25
		c-7.5-3.734-21.141-3.734-28.624,0l-4.516,2.25c-13.585,6.796-34.093,6.796-47.686,0l-4.508-2.25
		c-7.492-3.734-21.131-3.734-28.624,0l-4.5,2.25c-13.601,6.796-34.108,6.796-47.702,0l-4.508-2.25
		c-7.484-3.734-21.124-3.734-28.616,0l-4.508,2.25C101.376,345.222,91.213,348.003,82.283,348.003z"/>
	<path style="fill:#E6E9ED;" d="M256.004,458.64c-3.914,0-7.68-2.156-9.555-5.891c-2.633-5.266-0.5-11.672,4.773-14.312
		l23.577-11.797c13.594-6.781,34.108-6.781,47.702,0l4.516,2.25c7.484,3.75,21.124,3.75,28.607,0l4.499-2.25
		c13.609-6.781,34.109-6.781,47.719,0l23.576,11.797c5.266,2.641,7.406,9.047,4.766,14.312c-2.625,5.266-9.031,7.406-14.312,4.766
		l-23.577-11.781c-7.484-3.75-21.141-3.75-28.625,0l-4.5,2.25c-13.592,6.797-34.106,6.797-47.7,0l-4.5-2.25
		c-7.5-3.75-21.141-3.75-28.624,0l-23.585,11.781C259.23,458.297,257.605,458.64,256.004,458.64z"/>
	<path style="fill:#E6E9ED;" d="M82.283,412c-4.633,0-8.929-0.75-12.39-2.483l-10.664-5.328c-5.265-2.641-7.406-9.047-4.773-14.312
		c2.641-5.266,9.046-7.406,14.312-4.766l10.593,5.281c2.383,0.875,11.617,0.188,20.281-4.156l4.508-2.25
		c13.593-6.812,34.1-6.812,47.701,0l4.5,2.25c7.492,3.75,21.132,3.75,28.624,0l23.584-11.797c5.266-2.641,11.672-0.5,14.312,4.766
		c2.632,5.281,0.492,11.688-4.773,14.312l-23.585,11.796c-13.601,6.796-34.108,6.796-47.702,0l-4.508-2.25
		c-7.484-3.75-21.124-3.75-28.616,0l-4.508,2.25C101.376,409.22,91.213,412,82.283,412z"/>
</g>
<path style="fill:#F6BB42;" d="M86.22,302.411c-0.914,0-1.844-0.109-2.773-0.359c-5.688-1.531-9.062-7.375-7.539-13.062
	l22.085-82.427c1.523-5.687,7.375-9.069,13.062-7.546c5.695,1.531,9.07,7.374,7.546,13.069l-22.085,82.419
	C95.236,299.27,90.931,302.411,86.22,302.411z"/>
<path style="fill:#FFCE54;" d="M191.108,302.411c-4.711,0-9.016-3.141-10.297-7.906l-22.085-82.419
	c-1.523-5.695,1.852-11.538,7.547-13.069c5.688-1.523,11.539,1.859,13.062,7.546l22.085,82.427
	c1.523,5.688-1.852,11.531-7.547,13.062C192.951,302.302,192.021,302.411,191.108,302.411z"/>
<path style="fill:#F6BB42;" d="M281.956,249.96c-2.719,0-5.453-1.039-7.53-3.125l-60.343-60.334c-4.164-4.172-4.164-10.921,0-15.085
	s10.921-4.164,15.085,0l60.334,60.333c4.171,4.164,4.171,10.922,0,15.086C287.425,248.921,284.69,249.96,281.956,249.96z"/>
<path style="fill:#FFCE54;" d="M334.424,159.111c-0.922,0-1.844-0.117-2.766-0.367l-82.428-22.085
	c-5.688-1.523-9.062-7.367-7.539-13.062c1.523-5.688,7.375-9.069,13.062-7.539l82.42,22.086c5.687,1.523,9.062,7.375,7.546,13.062
	C343.438,155.97,339.127,159.111,334.424,159.111z"/>
<path style="fill:#CCD1D9;" d="M287.987,85.325h-85.325c-5.891,0-10.664-4.773-10.664-10.664c0-5.891,4.773-10.672,10.664-10.672
	h85.325c5.89,0,10.671,4.781,10.671,10.672C298.658,80.552,293.877,85.325,287.987,85.325z"/>
<path style="fill:#434A54;" d="M424.185,34.451C401.967,12.233,372.545,0,341.314,0H170.663c-31.226,0-60.654,12.233-82.872,34.451
	s-34.46,51.655-34.46,82.872v277.318c0,31.218,12.242,60.655,34.46,82.872c22.218,22.219,51.646,34.469,82.872,34.469h170.651
	c31.231,0,60.653-12.25,82.871-34.469c22.233-22.217,34.468-51.654,34.468-82.872V117.323
	C458.653,86.106,446.419,56.669,424.185,34.451z M437.309,394.641c0,25.53-10.016,49.608-28.202,67.795
	s-42.265,28.202-67.793,28.202H170.663c-25.523,0-49.6-10.016-67.787-28.202c-18.195-18.187-28.21-42.265-28.21-67.795V117.323
	c0-25.522,10.015-49.6,28.21-67.786c18.187-18.195,42.264-28.21,67.787-28.21h170.651c25.528,0,49.606,10.015,67.793,28.21
	c18.187,18.187,28.202,42.264,28.202,67.786V394.641z"/>
</svg>