<svg width="58" height="37" viewBox="0 0 58 37" fill="none" xmlns="http://www.w3.org/2000/svg">
<path d="M1.55459 36H3.44459C5.11059 36 6.00659 35.65 6.86059 34.922C7.53259 34.348 8.49859 33.298 8.49859 31.338C8.49859 29.658 7.75659 28.468 6.90259 27.754C5.72659 26.76 4.39659 26.662 3.45859 26.662H1.55459V36ZM2.59059 27.642H3.50059C5.86659 27.642 7.43459 29.098 7.43459 31.338C7.43459 32.668 6.87459 33.592 6.17459 34.18C5.26459 34.936 4.24259 35.02 3.50059 35.02H2.59059V27.642ZM12.8643 36.168C14.6283 36.168 15.9443 34.88 15.9443 33.116C15.9443 31.352 14.6423 30.05 12.8643 30.05C11.0863 30.05 9.78429 31.352 9.78429 33.116C9.78429 34.88 11.1003 36.168 12.8643 36.168ZM12.8643 30.946C13.9283 30.946 14.9083 31.688 14.9083 33.116C14.9083 34.53 13.9143 35.272 12.8643 35.272C11.8283 35.272 10.8203 34.544 10.8203 33.116C10.8203 31.702 11.8003 30.946 12.8643 30.946ZM16.6501 30.19L19.5061 36.406L21.2981 32.066L23.0901 36.406L25.9741 30.19H24.8541L23.1181 34.138L21.3121 29.742L19.4921 34.138L17.7701 30.19H16.6501ZM27.0331 36H28.0411V32.962C28.0411 32.542 28.0691 31.856 28.4611 31.394C28.7551 31.044 29.1331 30.946 29.4831 30.946C29.9311 30.946 30.2391 31.114 30.4351 31.366C30.6731 31.674 30.7011 32.08 30.7011 32.43V36H31.7091V32.402C31.7091 31.758 31.6671 31.282 31.3731 30.848C31.0231 30.33 30.3931 30.05 29.7071 30.05C28.7411 30.05 28.2231 30.624 28.0411 30.862V30.19H27.0331V36ZM33.6092 25.794V36H34.6172V25.794H33.6092ZM39.2373 36.168C41.0013 36.168 42.3173 34.88 42.3173 33.116C42.3173 31.352 41.0153 30.05 39.2373 30.05C37.4593 30.05 36.1573 31.352 36.1573 33.116C36.1573 34.88 37.4733 36.168 39.2373 36.168ZM39.2373 30.946C40.3013 30.946 41.2813 31.688 41.2813 33.116C41.2813 34.53 40.2873 35.272 39.2373 35.272C38.2013 35.272 37.1933 34.544 37.1933 33.116C37.1933 31.702 38.1733 30.946 39.2373 30.946ZM48.3151 31.016C48.0491 30.666 47.4471 30.05 46.3271 30.05C44.8431 30.05 43.4991 31.086 43.4991 33.088C43.4991 35.132 44.8571 36.168 46.3271 36.168C47.3491 36.168 47.9791 35.622 48.3151 35.188V36H49.3231V30.19H48.3151V31.016ZM46.4391 30.946C47.3351 30.946 48.3711 31.604 48.3711 33.102C48.3711 34.25 47.6711 35.272 46.4391 35.272C45.2351 35.272 44.5351 34.334 44.5351 33.088C44.5351 31.674 45.4451 30.946 46.4391 30.946ZM55.6843 31.016C55.4183 30.666 54.8163 30.05 53.6963 30.05C52.2123 30.05 50.8683 31.086 50.8683 33.088C50.8683 35.132 52.2263 36.168 53.6963 36.168C54.7183 36.168 55.3483 35.622 55.6843 35.188V36H56.6923V25.794H55.6843V31.016ZM53.8083 30.946C54.7043 30.946 55.7403 31.604 55.7403 33.102C55.7403 34.25 55.0403 35.272 53.8083 35.272C52.6043 35.272 51.9043 34.334 51.9043 33.088C51.9043 31.674 52.8143 30.946 53.8083 30.946Z" fill="white"/>
<path d="M27.8683 0V13.0017L22.1841 7.31747L21.291 8.21053L28.4999 15.4194L35.7087 8.21053L34.8156 7.31747L29.1314 13.0017V0H27.8683Z" fill="white"/>
<rect x="16.5" y="19.75" width="24" height="1.25" fill="white"/>
</svg>
