<svg width="37" height="37" viewBox="0 0 37 37" fill="none" xmlns="http://www.w3.org/2000/svg">
<path d="M36 18.25C36 27.915 28.165 35.75 18.5 35.75C8.83502 35.75 1 27.915 1 18.25C1 8.58502 8.83502 0.75 18.5 0.75C28.165 0.75 36 8.58502 36 18.25Z" fill="#3300CC"/>
<path fill-rule="evenodd" clip-rule="evenodd" d="M18.5 1.5C9.24923 1.5 1.75 8.99923 1.75 18.25C1.75 27.5008 9.24923 35 18.5 35C27.7508 35 35.25 27.5008 35.25 18.25C35.25 8.99923 27.7508 1.5 18.5 1.5ZM0.25 18.25C0.25 8.1708 8.4208 0 18.5 0C28.5792 0 36.75 8.1708 36.75 18.25C36.75 28.3292 28.5792 36.5 18.5 36.5C8.4208 36.5 0.25 28.3292 0.25 18.25Z" fill="white"/>
<g clip-path="url(#clip0_711_2276)">
<path d="M11.1403 23.4615L12.0311 28.9186L17.2025 26.9615L26.5622 10.75L20.5 7.25L11.1403 23.4615ZM21.0286 9.13665L24.6689 11.2384L22.6145 14.7966L18.9743 12.6949L21.0286 9.13665ZM18.2895 13.881L21.9297 15.9827L16.2324 25.8508L13.1311 27.0246L12.5971 23.7519L18.2972 13.879L18.2895 13.881Z" fill="white"/>
</g>
<defs>
<clipPath id="clip0_711_2276">
<rect width="7" height="23" fill="white" transform="translate(20.5 7.25) rotate(30)"/>
</clipPath>
</defs>
</svg>
