<svg width="32" height="37" viewBox="0 0 32 37" fill="none" xmlns="http://www.w3.org/2000/svg">
<path d="M6.33579 27.964C6.12579 27.558 5.80379 27.18 5.42579 26.928C4.96379 26.62 4.50179 26.508 3.92779 26.508C2.41579 26.508 1.30979 27.474 1.30979 28.916C1.30979 29.616 1.54779 30.05 1.95379 30.442C2.37379 30.848 2.83579 31.044 3.19979 31.212L4.03979 31.604C4.52979 31.828 4.89379 31.996 5.15979 32.248C5.49579 32.556 5.62179 32.92 5.62179 33.34C5.62179 34.278 5.01979 35.188 3.74579 35.188C3.26979 35.188 2.80779 35.076 2.40179 34.67C2.13579 34.39 1.91179 33.97 1.84179 33.48L0.833789 33.76C0.959789 34.32 1.23979 34.964 1.70179 35.412C2.34579 36.042 3.11579 36.168 3.73179 36.168C5.41179 36.168 6.68579 35.02 6.68579 33.298C6.68579 32.626 6.48979 32.08 6.01379 31.604C5.62179 31.212 5.11779 30.96 4.57179 30.722L3.67579 30.33C3.32579 30.176 2.97579 30.022 2.69579 29.742C2.44379 29.504 2.34579 29.294 2.34579 28.93C2.34579 28.062 2.98979 27.488 3.91379 27.488C4.44579 27.488 4.78179 27.67 4.96379 27.81C5.17379 27.978 5.38379 28.258 5.50979 28.51L6.33579 27.964ZM8.33188 36H9.33988V32.962C9.33988 32.542 9.36788 31.856 9.75988 31.394C10.0539 31.044 10.4319 30.946 10.7819 30.946C11.2299 30.946 11.5379 31.114 11.7339 31.366C11.9719 31.674 11.9999 32.08 11.9999 32.43V36H13.0079V32.402C13.0079 31.758 12.9659 31.282 12.6719 30.848C12.3219 30.33 11.6919 30.05 11.0059 30.05C10.0399 30.05 9.52188 30.624 9.33988 30.862V25.794H8.33188V36ZM19.3601 31.016C19.0941 30.666 18.4921 30.05 17.3721 30.05C15.8881 30.05 14.5441 31.086 14.5441 33.088C14.5441 35.132 15.9021 36.168 17.3721 36.168C18.3941 36.168 19.0241 35.622 19.3601 35.188V36H20.3681V30.19H19.3601V31.016ZM17.4841 30.946C18.3801 30.946 19.4161 31.604 19.4161 33.102C19.4161 34.25 18.7161 35.272 17.4841 35.272C16.2801 35.272 15.5801 34.334 15.5801 33.088C15.5801 31.674 16.4901 30.946 17.4841 30.946ZM22.2772 36H23.2852V32.934C23.2852 31.982 23.4532 31.59 23.6212 31.366C23.7752 31.17 24.0272 31.002 24.4332 31.002C24.5872 31.002 24.7972 31.044 25.0212 31.198L25.4972 30.288C25.2452 30.162 24.9092 30.05 24.6012 30.05C23.8172 30.05 23.3832 30.666 23.2852 30.82V30.19H22.2772V36ZM30.39 34.054C30.264 34.334 30.054 34.628 29.788 34.852C29.452 35.132 29.074 35.272 28.598 35.272C27.59 35.272 26.764 34.502 26.75 33.298H31.272C31.3 32.528 31.09 31.632 30.726 31.114C30.376 30.61 29.662 30.05 28.528 30.05C26.778 30.05 25.714 31.394 25.714 33.13C25.714 35.286 27.184 36.168 28.584 36.168C29.326 36.168 29.984 35.93 30.516 35.454C30.81 35.188 31.062 34.838 31.23 34.516L30.39 34.054ZM26.82 32.458C26.974 31.59 27.674 30.946 28.528 30.946C29.382 30.946 30.068 31.548 30.236 32.458H26.82Z" fill="white"/>
<path d="M26.7939 19.7647H5.79389V1.23529H13.8233V0H4.55859V21H28.0292V14.2059H26.7939V19.7647Z" fill="white"/>
<path d="M18.146 0V1.23529H25.9197L16.655 10.5L17.5284 11.3734L26.7931 2.10865V9.88235H28.0284V0H18.146Z" fill="white"/>
</svg>
